<?xml version="1.0" standalone="no"?>
<!DOCTYPE svg PUBLIC "-//W3C//DTD SVG 20010904//EN"
 "http://www.w3.org/TR/2001/REC-SVG-20010904/DTD/svg10.dtd">
<svg version="1.0" xmlns="http://www.w3.org/2000/svg"
 width="570.000000pt" height="570.000000pt" viewBox="0 0 570.000000 570.000000"
 preserveAspectRatio="xMidYMid meet">

<g transform="translate(0.000000,570.000000) scale(0.100000,-0.100000)"
fill="#000000" stroke="none">
<path d="M0 2850 l0 -2850 2850 0 2850 0 0 2850 0 2850 -2850 0 -2850 0 0
-2850z m3220 2725 c783 -115 1444 -536 1884 -1198 327 -491 489 -1101 448
-1682 -28 -387 -109 -689 -277 -1030 -150 -304 -297 -508 -539 -750 -397 -395
-879 -641 -1454 -742 -144 -25 -179 -27 -422 -28 -275 0 -353 7 -590 55 -129
26 -327 90 -474 151 -600 252 -1088 716 -1381 1313 -154 315 -229 579 -270
951 -72 642 132 1361 539 1900 456 607 1106 978 1871 1070 151 18 515 13 665
-10z"/>
<path d="M2906 5578 c-3 -7 -9 -206 -15 -443 -7 -236 -13 -446 -14 -465 l-2
-35 75 -15 c156 -33 303 -97 451 -195 149 -99 148 -113 -3 -62 -57 19 -145 42
-197 51 -110 19 -316 22 -327 5 -4 -6 -9 -112 -12 -235 l-5 -224 -26 0 c-71
-1 -145 -62 -177 -145 -41 -108 37 -237 157 -260 l35 -6 -4 -182 c-3 -190 -5
-207 -21 -207 -19 0 -98 87 -136 150 -47 78 -233 353 -289 429 -23 29 -48 63
-56 75 -14 21 -116 156 -153 202 -17 22 -16 23 76 115 195 198 410 300 677
325 96 8 269 -11 378 -42 45 -13 86 -24 90 -24 11 0 -104 68 -177 104 -97 48
-195 83 -291 101 -115 23 -284 17 -399 -15 -158 -43 -345 -156 -471 -284 -30
-31 -59 -56 -65 -56 -13 0 -67 68 -63 80 2 5 24 30 49 57 80 85 171 206 198
263 35 77 36 153 1 181 -23 18 -34 19 -115 13 -132 -11 -153 -9 -228 25 -38
17 -73 31 -77 31 -5 0 -4 -14 2 -31 6 -18 8 -57 4 -92 -7 -73 -55 -217 -74
-224 -7 -3 -23 3 -35 14 -30 28 -142 103 -153 103 -5 0 31 -39 80 -86 l89 -85
-23 -42 c-13 -23 -69 -116 -125 -207 -218 -353 -292 -489 -372 -683 -141 -346
-193 -711 -149 -1062 8 -60 14 -110 13 -111 -1 0 -49 -39 -107 -86 -119 -98
-271 -250 -319 -321 -86 -126 -119 -253 -91 -353 16 -56 90 -141 153 -174 l45
-24 25 30 c13 16 48 58 76 94 l52 64 -41 34 c-122 102 -121 272 3 445 52 73
181 213 210 228 11 6 17 7 14 2 -7 -11 43 -207 84 -325 35 -103 53 -142 44
-93 -14 80 -34 263 -40 375 l-7 125 97 69 c90 64 115 89 102 102 -2 3 -47 -22
-98 -55 l-94 -61 -3 48 c-2 26 2 107 8 181 34 416 161 786 384 1121 64 97 229
307 303 387 l58 62 33 -44 34 -44 -49 -60 c-26 -33 -77 -106 -112 -163 -213
-341 -348 -731 -422 -1223 -22 -141 -19 -671 4 -800 34 -189 78 -353 97 -358
13 -3 19 -20 25 -63 7 -60 31 -131 40 -122 3 3 -4 45 -15 93 -11 48 -19 89
-18 91 3 3 177 34 191 34 4 0 7 -8 8 -17 0 -16 1 -15 8 1 8 20 91 44 158 45
17 1 34 5 38 10 3 6 -11 49 -31 98 -119 286 -165 523 -165 844 0 348 57 650
181 964 61 154 200 404 225 405 9 0 197 -279 239 -355 9 -16 26 -46 38 -65 39
-64 156 -306 169 -351 8 -24 21 -59 31 -78 21 -41 55 -188 108 -471 23 -118
59 -289 81 -379 30 -127 39 -183 39 -252 l0 -89 26 0 c15 0 32 6 38 13 11 14
44 28 154 65 147 51 190 67 242 91 30 13 80 34 110 47 l55 22 22 109 c12 59
33 169 47 243 73 386 121 620 126 620 3 0 14 -24 26 -53 11 -28 63 -159 115
-289 52 -131 96 -238 99 -238 3 0 43 71 90 157 47 86 138 254 203 372 64 119
132 244 149 279 18 34 35 62 39 62 18 0 99 -558 99 -682 0 -33 4 -48 13 -48
13 0 51 22 167 99 30 20 68 45 86 56 39 25 64 43 185 127 54 38 100 68 104 68
4 0 37 -26 72 -57 36 -32 75 -65 87 -73 67 -45 96 -66 95 -70 -1 -20 -629
-440 -657 -440 -7 0 -12 5 -12 10 0 20 -15 9 -28 -20 -8 -17 -33 -41 -56 -55
l-43 -25 -7 -103 c-22 -339 -122 -657 -264 -846 -103 -136 -244 -256 -390
-330 -65 -33 -61 -19 5 22 137 85 233 198 319 372 87 179 144 449 144 687 l0
98 -32 -20 c-21 -12 -51 -20 -80 -20 -48 0 -78 21 -135 93 -12 16 -27 27 -32
25 -6 -1 17 -38 51 -81 33 -43 59 -80 57 -81 -12 -11 -111 -56 -121 -55 -7 0
-38 34 -68 75 -48 66 -57 74 -80 69 -22 -5 -31 1 -58 38 l-31 44 35 17 c20 9
34 22 31 29 -3 7 -38 94 -77 195 -40 100 -75 181 -77 179 -7 -8 -161 -522
-157 -526 2 -2 34 10 71 27 78 34 79 34 123 -42 16 -29 41 -65 55 -81 31 -33
80 -104 74 -108 -2 -2 -42 -20 -89 -40 l-85 -38 -18 22 c-10 12 -22 29 -27 38
-15 28 -20 6 -5 -23 8 -16 15 -34 15 -40 0 -7 -35 -27 -77 -45 l-78 -32 -22
28 c-26 32 -39 26 -22 -11 7 -14 10 -28 8 -29 -2 -2 -76 -32 -164 -66 -88 -35
-175 -70 -194 -79 -31 -14 -35 -14 -46 1 -11 15 -13 14 -25 -8 -16 -29 -96
-59 -144 -53 l-33 4 -7 -135 c-3 -74 -6 -222 -6 -329 l0 -195 86 7 c93 8 218
40 310 81 38 17 61 22 67 16 11 -11 -39 -36 -143 -72 -272 -96 -559 -58 -779
104 -77 56 -174 150 -228 220 -36 46 -50 58 -67 54 -163 -36 -287 -61 -365
-73 -52 -8 -96 -16 -99 -18 -8 -8 108 -178 166 -244 162 -183 420 -332 672
-388 98 -22 318 -22 415 -1 152 34 353 137 487 250 26 22 51 37 55 34 9 -10
-24 -43 -107 -106 -121 -91 -267 -160 -427 -201 l-43 -11 0 -224 0 -225 59 0
c98 0 307 20 430 40 400 68 791 233 1124 473 53 39 97 73 97 77 0 3 -23 6 -52
5 -48 -1 -53 -3 -71 -36 -29 -53 -34 -54 -56 -10 -23 44 -30 46 -131 41 -52
-2 -46 7 20 35 25 10 47 20 49 22 2 1 -6 19 -18 39 -12 20 -20 38 -18 41 3 2
28 -5 56 -17 65 -25 77 -25 136 1 25 11 49 18 52 15 3 -2 -4 -18 -16 -34 -12
-17 -21 -34 -21 -39 0 -9 77 -43 98 -43 21 0 314 299 401 410 85 108 183 251
240 353 l32 57 -65 0 -65 0 -27 -46 -27 -47 -24 47 -23 46 -73 1 -72 0 53 24
c54 25 62 38 37 71 -28 38 -17 44 38 19 64 -30 64 -30 132 -1 57 26 69 20 40
-18 -22 -29 -18 -44 13 -59 67 -35 64 -37 125 90 61 127 114 268 153 403 13
47 27 93 30 103 5 15 -2 17 -60 17 l-65 0 -22 -40 c-13 -22 -25 -40 -28 -40
-3 0 -16 18 -29 40 l-22 39 -73 3 -72 3 57 27 58 27 -21 36 c-12 20 -19 38
-17 41 3 2 30 -7 61 -22 l57 -25 56 25 c73 33 78 33 54 -7 -11 -17 -20 -37
-20 -43 0 -14 75 -48 88 -40 13 8 65 292 56 307 -1 3 -31 6 -64 7 -59 1 -62 0
-78 -29 -36 -66 -37 -66 -63 -20 -26 47 -48 56 -115 48 -24 -2 -44 -1 -44 2 0
4 23 17 51 29 l51 21 -21 37 c-12 20 -20 39 -17 41 3 3 30 -5 61 -18 55 -23
56 -23 103 -5 90 35 89 35 64 -8 -12 -20 -22 -40 -22 -44 0 -10 92 -44 99 -36
3 3 8 108 10 233 4 317 -22 528 -104 811 -70 243 -190 506 -324 713 l-64 99
-56 -7 c-31 -4 -59 -9 -64 -12 -4 -2 -18 -25 -30 -49 l-23 -46 -29 41 c-18 27
-34 40 -44 37 -9 -3 -41 -7 -71 -11 l-55 -6 53 31 c28 17 52 36 52 43 0 6 -9
23 -20 37 -29 36 -25 40 27 24 25 -8 56 -14 69 -14 27 0 94 37 94 52 0 6 -28
42 -62 80 l-62 70 -60 -7 c-77 -8 -90 -16 -110 -65 -9 -22 -18 -40 -20 -40 -2
0 -16 18 -31 40 -16 23 -34 39 -40 36 -7 -2 -38 -7 -71 -11 l-59 -6 53 30 c28
17 52 35 52 39 0 4 -9 21 -20 37 -11 17 -20 33 -20 37 0 3 27 -2 60 -12 l60
-18 50 26 c42 21 48 28 37 40 -24 31 -230 202 -242 202 -6 0 -17 -11 -23 -25
-13 -29 -16 -26 58 -46 42 -11 43 -12 20 -20 -14 -4 -46 -10 -72 -14 -44 -6
-48 -9 -65 -50 -10 -25 -21 -45 -25 -45 -4 0 -18 16 -30 36 -23 35 -23 35 -79
30 -31 -3 -63 -8 -72 -12 -9 -3 -17 -2 -17 3 0 4 23 19 50 32 28 13 50 29 50
36 0 7 -10 24 -21 39 -12 15 -19 29 -16 32 3 3 31 -2 63 -11 56 -16 57 -16
100 7 24 13 44 27 44 33 0 11 -19 24 -175 122 -55 35 -106 63 -113 63 -7 0
-18 -12 -24 -26 -14 -30 -4 -40 54 -49 57 -10 46 -23 -28 -30 l-66 -8 -23 -49
-23 -50 -27 41 c-15 23 -31 41 -34 41 -4 0 -33 -5 -65 -11 -32 -6 -60 -8 -62
-6 -3 3 17 17 43 32 26 15 50 29 52 31 2 2 -9 20 -24 39 -15 20 -25 38 -24 40
2 2 32 -4 67 -13 62 -16 62 -16 107 8 35 19 42 27 32 36 -13 12 -220 108 -278
129 -35 13 -37 12 -48 -12 -14 -31 -6 -39 51 -48 62 -11 53 -23 -21 -31 l-69
-6 -23 -50 -23 -50 -17 24 c-47 63 -39 59 -102 48 -81 -16 -90 -8 -29 25 29
15 52 31 52 34 0 3 -9 20 -20 36 -11 17 -20 33 -20 36 0 3 27 -1 59 -10 55
-14 62 -14 100 4 23 10 38 21 34 25 -4 4 -37 16 -73 28 -211 67 -429 108 -683
127 -58 4 -78 2 -81 -7z m-1170 -1125 c-11 -11 -17 4 -9 23 7 18 8 18 11 1 2
-10 1 -21 -2 -24z m3369 -233 c-22 -42 -14 -57 32 -64 69 -12 69 -23 -1 -31
-72 -7 -88 -18 -107 -70 -16 -42 -24 -44 -43 -7 -24 46 -35 51 -94 41 -75 -14
-83 -7 -29 24 26 16 47 33 47 38 0 6 -9 24 -21 41 -12 16 -19 31 -17 33 2 3
31 -4 65 -14 l60 -18 59 33 c32 18 60 31 62 29 2 -2 -4 -17 -13 -35z m-1158
-96 c-3 -3 -12 -4 -19 -1 -8 3 -5 6 6 6 11 1 17 -2 13 -5z m116 -84 c3 -11 1
-20 -4 -20 -5 0 -9 9 -9 20 0 11 2 20 4 20 2 0 6 -9 9 -20z m-269 -5 c-4 -8
-11 -15 -16 -15 -6 0 -5 6 2 15 7 8 14 15 16 15 2 0 1 -7 -2 -15z m-1659 -5
c3 -5 2 -10 -4 -10 -5 0 -13 5 -16 10 -3 6 -2 10 4 10 5 0 13 -4 16 -10z
m1526 -99 c-30 -30 -39 -26 -11 4 13 14 25 23 28 21 2 -2 -6 -14 -17 -25z
m1556 -27 c36 9 67 15 70 13 2 -2 -12 -18 -32 -36 -20 -17 -34 -35 -31 -39 3
-5 23 -17 46 -27 49 -22 52 -35 5 -29 -19 2 -52 6 -72 9 -32 4 -44 -1 -85 -36
-50 -42 -54 -41 -60 16 -3 29 -5 30 -58 33 -77 4 -82 17 -13 34 l58 14 3 46 3
47 50 -31 50 -30 66 16z m-2387 6 c0 -5 -4 -10 -10 -10 -5 0 -10 5 -10 10 0 6
5 10 10 10 6 0 10 -4 10 -10z m100 -10 c0 -5 -4 -10 -10 -10 -5 0 -10 5 -10
10 0 6 5 10 10 10 6 0 10 -4 10 -10z m-520 -240 c0 -5 -5 -10 -11 -10 -5 0 -7
5 -4 10 3 6 8 10 11 10 2 0 4 -4 4 -10z m475 -60 c3 -6 -1 -7 -9 -4 -18 7 -21
14 -7 14 6 0 13 -4 16 -10z m585 -74 c0 -2 -7 -6 -15 -10 -8 -3 -15 -1 -15 4
0 6 7 10 15 10 8 0 15 -2 15 -4z m1326 -32 c208 -30 344 -84 434 -174 63 -62
80 -104 80 -194 0 -60 -17 -143 -31 -151 -4 -3 -52 14 -106 38 l-98 43 0 69
c-1 108 -47 177 -160 240 -136 76 -311 106 -615 105 -261 0 -484 -24 -820 -90
-118 -22 -139 -24 -125 -11 13 12 337 75 515 101 126 18 328 36 480 44 111 5
340 -5 446 -20z m-1476 2 c0 -3 -4 -8 -10 -11 -5 -3 -10 -1 -10 4 0 6 5 11 10
11 6 0 10 -2 10 -4z m-353 -352 c-3 -3 -12 -4 -19 -1 -8 3 -5 6 6 6 11 1 17
-2 13 -5z m93 -114 c0 -5 -5 -10 -11 -10 -5 0 -7 5 -4 10 3 6 8 10 11 10 2 0
4 -4 4 -10z m-355 -150 c3 -5 1 -10 -4 -10 -6 0 -11 5 -11 10 0 6 2 10 4 10 3
0 8 -4 11 -10z m150 -730 c3 -5 1 -10 -4 -10 -6 0 -11 5 -11 10 0 6 2 10 4 10
3 0 8 -4 11 -10z m2376 -136 c33 14 63 26 65 26 3 0 -4 -15 -15 -34 -12 -18
-21 -39 -21 -45 0 -6 24 -22 53 -35 l52 -24 -72 -1 -73 -1 -20 -40 c-11 -22
-24 -40 -28 -40 -5 0 -18 18 -31 40 l-22 40 -72 1 -72 1 53 24 c55 25 62 38
37 70 -29 39 -16 44 45 17 l60 -26 61 27z m-2364 -66 c-3 -7 -5 -2 -5 12 0 14
2 19 5 13 2 -7 2 -19 0 -25z m148 -328 c3 -5 1 -10 -4 -10 -6 0 -11 5 -11 10
0 6 2 10 4 10 3 0 8 -4 11 -10z m18 -25 c-3 -9 -8 -14 -10 -11 -3 3 -2 9 2 15
9 16 15 13 8 -4z m736 -201 c-106 -191 -309 -452 -309 -396 0 4 14 23 31 42
66 76 176 228 224 310 5 8 -36 -24 -90 -71 -101 -86 -228 -179 -245 -179 -24
0 -3 21 82 81 50 35 144 114 207 176 64 61 120 108 124 103 5 -4 -6 -34 -24
-66z m1021 30 l54 -26 53 26 c30 14 58 26 63 26 6 0 1 -18 -10 -40 -11 -21
-20 -41 -20 -44 0 -2 23 -12 50 -22 28 -10 50 -22 50 -26 0 -4 -31 -8 -70 -8
l-70 0 -20 -40 c-11 -22 -22 -40 -25 -40 -2 0 -14 18 -26 40 l-22 39 -71 3
-71 3 53 24 c28 13 52 28 52 34 0 5 -9 25 -21 43 -25 41 -19 42 51 8z m-166
-304 c7 0 39 11 70 25 31 14 56 21 56 17 0 -4 -9 -20 -20 -37 -11 -16 -20 -34
-20 -38 0 -5 24 -19 53 -32 l52 -24 -67 0 -68 -1 -29 -46 -28 -46 -27 46 -27
46 -72 1 c-75 0 -75 1 7 34 l38 15 -21 35 c-12 20 -21 40 -21 45 0 5 25 -2 55
-16 31 -13 62 -24 69 -24z m-1269 -30 c3 -5 1 -10 -4 -10 -6 0 -11 5 -11 10 0
6 2 10 4 10 3 0 8 -4 11 -10z m230 -320 c3 -6 -1 -7 -9 -4 -18 7 -21 14 -7 14
6 0 13 -4 16 -10z m110 -10 c3 -6 -1 -7 -9 -4 -18 7 -21 14 -7 14 6 0 13 -4
16 -10z m30 -70 c3 -5 1 -10 -4 -10 -6 0 -11 5 -11 10 0 6 2 10 4 10 3 0 8 -4
11 -10z m160 -78 c-3 -3 -11 0 -18 7 -9 10 -8 11 6 5 10 -3 15 -9 12 -12z"/>
<path d="M2051 5434 c0 -11 3 -14 6 -6 3 7 2 16 -1 19 -3 4 -6 -2 -5 -13z"/>
<path d="M2062 5380 c0 -14 2 -19 5 -12 2 6 2 18 0 25 -3 6 -5 1 -5 -13z"/>
<path d="M2078 5293 c5 -21 7 -23 10 -9 2 10 0 22 -6 28 -6 6 -7 0 -4 -19z"/>
<path d="M1970 5270 c-6 -12 -9 -24 -7 -27 3 -2 11 5 17 17 6 12 9 24 7 27 -3
2 -11 -5 -17 -17z"/>
<path d="M1932 5160 c0 -14 2 -19 5 -12 2 6 2 18 0 25 -3 6 -5 1 -5 -13z"/>
<path d="M2091 5154 c0 -11 3 -14 6 -6 3 7 2 16 -1 19 -3 4 -6 -2 -5 -13z"/>
<path d="M2029 5063 c-13 -16 -12 -17 4 -4 9 7 17 15 17 17 0 8 -8 3 -21 -13z"/>
<path d="M1935 5020 c3 -5 8 -10 11 -10 2 0 4 5 4 10 0 6 -5 10 -11 10 -5 0
-7 -4 -4 -10z"/>
<path d="M1967 4973 c-4 -3 -7 -13 -7 -22 1 -13 3 -13 11 2 11 19 8 33 -4 20z"/>
<path d="M4722 4780 c-9 -23 -8 -32 1 -34 73 -20 87 -23 87 -17 0 4 -17 24
-39 45 l-38 38 -11 -32z"/>
<path d="M4961 4513 c-6 -12 -11 -24 -11 -27 0 -6 72 -27 77 -23 1 2 -10 19
-26 37 -28 34 -28 34 -40 13z"/>
<path d="M2430 3090 c-8 -5 -10 -10 -5 -10 6 0 17 5 25 10 8 5 11 10 5 10 -5
0 -17 -5 -25 -10z"/>
<path d="M2380 3070 c-8 -5 -10 -10 -5 -10 6 0 17 5 25 10 8 5 11 10 5 10 -5
0 -17 -5 -25 -10z"/>
<path d="M2320 3050 c-18 -12 -2 -12 25 0 13 6 15 9 5 9 -8 0 -22 -4 -30 -9z"/>
<path d="M2145 2981 c-77 -32 -165 -70 -195 -84 -30 -13 -90 -39 -132 -57 -43
-17 -78 -36 -78 -42 0 -6 6 -8 13 -5 6 3 64 29 127 57 63 29 183 81 265 117
83 36 152 67 154 69 13 12 -28 -3 -154 -55z"/>
<path d="M4963 2954 l-43 -35 44 -37 c113 -95 149 -122 160 -122 6 0 29 15 50
33 47 40 42 61 -13 53 -47 -8 -70 6 -51 29 11 13 11 18 -2 31 -13 13 -19 14
-37 3 -18 -12 -23 -11 -38 4 -16 16 -16 18 2 32 20 15 20 15 1 30 -26 20 -24
20 -73 -21z"/>
<path d="M4845 2874 c-20 -15 -19 -16 13 -42 46 -39 40 -45 -20 -17 -48 22
-54 23 -70 8 -10 -9 -18 -19 -18 -22 0 -4 40 -44 90 -89 l89 -83 27 18 27 17
-39 33 c-46 38 -41 41 20 11 38 -18 49 -20 71 -10 15 7 25 18 23 25 -4 12
-179 167 -188 167 -3 -1 -14 -7 -25 -16z"/>
<path d="M4135 2678 c-206 -302 -194 -282 -176 -295 13 -9 20 -6 43 21 14 18
45 38 67 46 62 20 108 3 157 -59 21 -28 42 -50 47 -51 15 0 6 76 -13 105 -23
35 -25 63 -6 91 12 17 12 37 -2 147 -8 70 -18 127 -21 127 -3 0 -46 -60 -96
-132z"/>
<path d="M4668 2752 c-16 -9 -28 -19 -28 -22 0 -3 40 -45 89 -94 l89 -88 26
17 c14 10 26 20 26 24 0 3 -39 45 -87 93 l-88 87 -27 -17z"/>
<path d="M4550 2680 l-25 -19 29 -30 c41 -42 24 -52 -19 -11 -33 32 -34 33
-60 16 -14 -10 -25 -21 -23 -26 5 -13 168 -180 176 -180 4 0 18 9 32 20 l25
19 -40 40 c-49 51 -25 55 26 5 36 -36 37 -36 63 -19 15 10 25 21 24 26 -4 12
-169 179 -177 179 -3 0 -17 -9 -31 -20z"/>
<path d="M4319 2547 c-42 -28 -48 -61 -18 -93 19 -20 32 -24 84 -24 48 0 66
-4 79 -19 10 -11 13 -22 8 -25 -5 -3 -15 1 -22 9 -16 19 -39 19 -65 -1 -20
-15 -20 -15 4 -35 59 -48 183 10 151 71 -18 34 -57 53 -108 51 -58 -1 -82 6
-82 25 0 17 12 18 26 4 8 -8 19 -7 37 1 33 15 34 23 5 43 -31 22 -59 20 -99
-7z"/>
<path d="M4084 2419 c-16 -5 -40 -20 -53 -33 -22 -23 -22 -26 -7 -58 27 -55
113 -138 144 -138 37 0 93 32 103 57 9 25 -29 88 -83 139 -39 38 -62 45 -104
33z m63 -96 c61 -71 68 -83 51 -83 -12 0 -108 108 -116 131 -9 25 21 3 65 -48z"/>
<path d="M3868 2309 c-32 -16 -58 -33 -58 -37 1 -21 19 -33 42 -27 22 6 32 -3
83 -69 32 -42 63 -76 69 -76 6 0 21 8 33 18 l23 17 -60 77 c-52 66 -58 78 -44
86 21 12 11 42 -13 42 -10 -1 -44 -14 -75 -31z"/>
<path d="M3578 2171 c-21 -10 -41 -20 -44 -24 -6 -6 123 -207 132 -207 13 0
114 52 114 59 0 20 -29 32 -49 22 -15 -8 -23 -7 -35 5 -20 20 -20 31 1 42 10
6 14 16 10 27 -5 13 -14 15 -37 10 -23 -5 -32 -3 -37 11 -4 10 0 22 11 29 20
15 11 45 -13 44 -9 0 -33 -8 -53 -18z"/>
<path d="M3442 2114 c-18 -8 -32 -18 -30 -22 2 -4 16 -31 31 -60 16 -30 27
-56 25 -58 -2 -2 -23 21 -47 51 -23 30 -46 55 -51 55 -17 0 -60 -23 -60 -33 0
-5 27 -37 59 -71 33 -33 70 -74 83 -89 l24 -28 49 21 c27 12 51 23 54 25 5 5
-92 225 -99 224 -3 0 -20 -7 -38 -15z"/>
<path d="M3168 1997 c-32 -11 -58 -24 -58 -27 0 -8 108 -190 120 -203 4 -5 22
-1 39 8 33 16 33 18 -1 67 -10 14 -18 31 -18 37 0 24 21 9 46 -34 14 -25 30
-45 36 -45 8 0 47 17 56 26 8 6 -60 94 -73 94 -8 0 -12 6 -9 14 7 18 -21 72
-41 80 -24 9 -33 7 -97 -17z m66 -50 c15 -24 -3 -35 -20 -13 -8 11 -14 24 -14
29 0 13 22 3 34 -16z"/>
<path d="M2990 1930 c-24 -9 -46 -22 -48 -28 -2 -6 22 -56 53 -110 l56 -100
60 21 c58 19 67 29 51 55 -6 9 -16 10 -34 3 -40 -15 -68 27 -31 47 25 15 9 46
-21 38 -16 -4 -28 0 -37 10 -12 14 -11 19 8 31 18 12 21 19 12 34 -11 22 -11
22 -69 -1z"/>
<path d="M2815 1870 c-35 -8 -73 -30 -79 -46 -3 -7 3 -27 12 -45 13 -27 25
-36 57 -42 73 -15 90 -22 93 -40 4 -21 -17 -22 -32 -1 -8 11 -20 13 -39 9 -33
-9 -34 -25 -3 -54 20 -19 30 -21 62 -15 56 10 84 31 84 64 0 43 -38 76 -99 84
-32 4 -54 13 -58 22 -8 22 7 32 20 13 8 -13 16 -15 39 -7 31 11 34 17 16 40
-18 21 -37 26 -73 18z"/>
<path d="M2510 1769 c-36 -15 -60 -39 -60 -61 0 -10 16 -50 35 -89 42 -82 67
-97 130 -79 52 16 65 27 65 56 0 30 -51 144 -72 161 -22 18 -69 24 -98 12z
m66 -106 c16 -37 31 -71 32 -75 2 -4 -2 -8 -10 -8 -10 0 -49 73 -76 142 -2 4
3 8 11 8 8 0 27 -29 43 -67z"/>
<path d="M2287 1700 c-69 -22 -69 -22 -61 -44 4 -11 15 -16 32 -14 24 3 29 -4
63 -82 35 -81 38 -85 65 -82 16 2 33 7 37 11 4 4 -8 45 -28 90 -35 83 -37 101
-8 101 10 0 13 6 9 16 -3 9 -6 18 -6 20 0 9 -48 1 -103 -16z"/>
<path d="M2008 1626 c-32 -7 -61 -15 -64 -19 -6 -6 59 -213 69 -223 6 -6 131
27 144 38 7 6 13 21 13 34 0 26 -44 152 -57 164 -17 16 -50 18 -105 6z m50
-63 c32 -85 39 -123 23 -123 -9 0 -51 112 -51 137 0 23 17 14 28 -14z"/>
<path d="M1776 1583 l-29 -5 7 -86 c11 -141 14 -152 45 -152 35 0 50 11 48 34
-3 27 23 32 30 6 5 -19 10 -21 42 -15 20 4 37 8 39 10 1 1 -20 50 -47 109 -54
116 -49 112 -135 99z m70 -121 c4 -21 3 -32 -5 -32 -6 0 -11 4 -11 9 0 5 -3
24 -6 42 -5 25 -4 31 4 24 7 -6 15 -25 18 -43z"/>
<path d="M1597 1550 c-27 -5 -50 -10 -52 -12 -4 -4 43 -220 49 -225 2 -2 31
-1 65 3 55 6 61 9 61 30 0 18 -6 23 -32 26 -25 2 -34 8 -36 26 -3 17 2 22 17
22 16 0 21 6 21 26 0 23 -3 25 -24 20 -17 -4 -26 -1 -30 10 -10 27 -7 34 19
34 26 0 29 7 19 34 -7 17 -7 17 -77 6z"/>
<path d="M1398 1523 c-22 -5 -22 -13 -3 -128 8 -49 15 -93 15 -97 0 -9 66 -10
98 -2 32 9 30 44 -3 44 -14 0 -25 6 -26 13 0 6 -6 48 -12 92 -13 84 -20 92
-69 78z"/>
<path d="M902 1488 c2 -16 9 -22 21 -20 21 4 22 -12 2 -115 -8 -43 -15 -79
-15 -81 0 -2 17 -2 37 0 l37 3 16 90 c15 85 17 90 40 90 18 0 26 6 28 21 3 18
-4 22 -35 27 -21 4 -60 7 -86 7 -44 0 -48 -2 -45 -22z"/>
<path d="M1124 1496 c-36 -16 -44 -37 -44 -128 0 -60 3 -69 26 -87 32 -25 83
-27 124 -6 30 16 30 16 30 109 0 65 -4 97 -13 104 -22 19 -90 23 -123 8z m64
-116 c-2 -48 -7 -75 -15 -78 -10 -3 -13 17 -13 76 0 43 3 82 7 86 16 16 24
-16 21 -84z"/>
</g>
</svg>
